<svg width="84" height="50" viewBox="0 0 84 50" fill="none" xmlns="http://www.w3.org/2000/svg">
<path fill-rule="evenodd" clip-rule="evenodd" d="M60.2832 47.5672C67.7482 47.7482 75.3768 47.3863 82.5146 49.9524C82.94 50.1038 83.408 49.8833 83.5618 49.4556C83.7123 49.0279 83.4931 48.5575 83.0676 48.4029C75.763 45.7775 67.9609 46.1065 60.3225 45.9222C59.8709 45.9091 59.4945 46.271 59.4847 46.725C59.4716 47.179 59.8316 47.554 60.2832 47.5672Z" fill="#1A1A1A"/>
<path fill-rule="evenodd" clip-rule="evenodd" d="M59.6142 36.6719C61.9411 34.5196 64.4807 32.9072 67.5505 32.1081C67.989 31.9942 68.2508 31.5451 68.1395 31.1056C68.025 30.666 67.5766 30.4019 67.1414 30.5157C63.8032 31.3843 61.0378 33.122 58.508 35.4609C58.1742 35.7681 58.1513 36.2889 58.4589 36.6232C58.7633 36.9571 59.2837 36.9792 59.6142 36.6719Z" fill="#1A1A1A"/>
<path fill-rule="evenodd" clip-rule="evenodd" d="M53.1393 13.1735C54.2061 9.49692 56.3072 6.62084 59.5275 4.54388C59.9072 4.29878 60.0184 3.7895 59.773 3.40754C59.5308 3.02557 59.0235 2.91436 58.6439 3.15947C55.0799 5.45915 52.7498 8.64186 51.5684 12.7125C51.4407 13.1481 51.6927 13.6054 52.1247 13.7324C52.56 13.8598 53.0149 13.609 53.1393 13.1735Z" fill="#1A1A1A"/>
<path fill-rule="evenodd" clip-rule="evenodd" d="M16.3715 8.1843C15.7366 8.9354 15.1672 9.74473 14.6828 10.6064C14.4668 10.99 14.0872 11.8052 14.0283 12.5043C13.9628 13.2492 14.2148 13.8776 14.8628 14.2086C15.7235 14.6474 16.4108 14.6017 16.941 14.3362C17.4515 14.0812 17.8508 13.5802 18.1028 12.9084C18.5838 11.6243 18.5118 9.66183 18.2598 8.54193C18.9373 7.83919 19.6802 7.20191 20.4755 6.63538C26.399 2.416 35.088 3.97183 41.7741 10.2807C44.114 12.4895 45.2398 17.1284 45.8257 22.1334C46.7387 29.9263 46.2184 38.6303 46.1464 41.1803C46.13 41.81 46.1889 42.1838 46.2216 42.2584C46.3755 42.6256 46.6471 42.721 46.8369 42.7572C47.1118 42.8066 47.3311 42.7539 47.5078 42.6618C47.7467 42.5355 47.9431 42.3131 48.0347 41.9699C48.0838 41.7804 48.0969 41.5166 48.0903 41.2353C48.0838 41.0402 48.0445 40.827 48.0838 40.6872C48.339 39.7916 48.6467 38.9172 48.9478 38.0364C49.9525 35.0758 51.2518 32.3014 52.695 29.5302C57.28 20.725 61.7145 11.4213 69.2318 4.71273C69.5689 4.4117 69.6017 3.89123 69.3006 3.5517C69.0028 3.21218 68.4857 3.18125 68.1453 3.48261C60.4774 10.3238 55.9218 19.7877 51.2452 28.7673C50.0179 31.1245 48.8921 33.4851 47.9561 35.9542C48.051 31.5865 48.015 25.5405 47.2198 20.191C46.5129 15.4334 45.1678 11.2288 42.8933 9.08147C35.569 2.17024 26.0161 0.671015 19.5296 5.29341C18.8358 5.78822 18.1748 6.33239 17.5595 6.92261C14.1658 0.762156 6.90039 -1.70698 0.479394 1.23951C0.0670362 1.42803 -0.112958 1.91626 0.0735848 2.32915C0.2634 2.74204 0.747739 2.92431 1.1601 2.7358C6.94619 0.0808002 13.5079 2.45022 16.3715 8.1843ZM16.8461 10.2468C16.581 10.6231 16.3355 11.0133 16.1064 11.4167C15.9853 11.6332 15.7759 12.0494 15.6875 12.4567C15.6679 12.5521 15.6646 12.7014 15.6646 12.7705C15.8904 12.8824 16.0671 12.9363 16.2111 12.8636C16.3911 12.7741 16.4828 12.5636 16.5712 12.3283C16.7937 11.7381 16.8657 10.9558 16.8461 10.2468Z" fill="#1A1A1A"/>
</svg>
