<svg width="9" height="9" viewBox="0 0 9 9" fill="none" xmlns="http://www.w3.org/2000/svg">
<mask id="path-1-inside-1_134_13679" fill="white">
<path d="M0 0H8.48527V8.48535H0V0Z"/>
</mask>
<path d="M0 0H8.48527V8.48535H0V0Z" fill="#F9375B"/>
<path d="M0 0V-2H-2V0H0ZM8.48527 0H10.4853V-2H8.48527V0ZM8.48527 8.48535V10.4854H10.4853V8.48535H8.48527ZM0 8.48535H-2V10.4854H0V8.48535ZM0 0V2H8.48527V0V-2H0V0ZM8.48527 0H6.48527V8.48535H8.48527H10.4853V0H8.48527ZM8.48527 8.48535V6.48535H0V8.48535V10.4854H8.48527V8.48535ZM0 8.48535H2V0H0H-2V8.48535H0Z" fill="black" mask="url(#path-1-inside-1_134_13679)"/>
</svg>
